<?xml version="1.0" encoding="iso-8859-1"?>
<!-- Generator: Adobe Illustrator 19.0.0, SVG Export Plug-In . SVG Version: 6.00 Build 0)  -->
<svg version="1.1" id="Layer_1" xmlns="http://www.w3.org/2000/svg" xmlns:xlink="http://www.w3.org/1999/xlink" x="0px" y="0px"
	 viewBox="0 0 508 508" style="enable-background:new 0 0 508 508;" xml:space="preserve">
<g>
	<path style="fill:#FFD05B;" d="M508,254c0,140.4-113.6,254-254,254S0,394.4,0,254C0,135.2,81.2,35.6,191.2,8c20-5.2,41.2-8,62.8-8
		s42.8,2.8,62.8,8C426.8,35.6,508,135.2,508,254z"/>
	<circle style="fill:#FFD05B;" cx="254" cy="254" r="254"/>
</g>
<g>
	<path style="fill:#FFFFFF;" d="M398.4,378.8H281.2v-0.4c-0.4-1.2-1.2-2-2.4-1.6c-4,0.8-8,1.2-12,1.6c-0.4,0-0.8,0-0.8,0.4h-19.2
		c-1.6,0-2.8,0-4.4-0.4c-0.4,0-0.8,0-1.2,0.4H232c0-0.8-0.8-2-1.6-2c-4-0.8-8-1.6-12-2.8c-1.2-0.4-2.4,0.4-2.4,1.2
		c-0.4,1.2,0.4,2.4,1.2,2.4c1.2,0.4,2.8,0.8,4,1.2H110.4v4h136c2.8,0,5.2,0.4,8,0.4l0,0c0.4,0,0.8,0,0.8-0.4H398v-4H398.4z"/>
	<path style="fill:#FFFFFF;" d="M324,358c-3.2,2.4-6.8,4.4-10.4,6.4c-1.2,0.4-1.2,1.6-0.8,2.8c0.4,0.8,1.2,1.2,2,1.2
		c0.4,0,0.8,0,0.8-0.4c3.6-2,7.2-4,10.8-6.4c0.8-0.8,1.2-2,0.4-2.8C326,357.6,324.8,357.6,324,358z"/>
	<path style="fill:#FFFFFF;" d="M323.6,149.6c3.6,2.4,6.8,4.8,10,7.2c0.4,0.4,0.8,0.4,1.2,0.4c0.4,0,1.2-0.4,1.6-0.8
		c0.8-0.8,0.4-2-0.4-2.8c-3.2-2.8-6.8-5.2-10.4-7.6c-0.8-0.8-2.4-0.4-2.8,0.4C322.4,147.6,322.4,148.8,323.6,149.6z"/>
	<path style="fill:#FFFFFF;" d="M342.8,342.4c-2.8,2.8-6,5.6-9.2,8.4c-0.8,0.8-1.2,2-0.4,2.8c0.4,0.4,0.8,0.8,1.6,0.8
		c0.4,0,0.8,0,1.2-0.4c3.2-2.8,6.4-5.6,9.2-8.4c0.8-0.8,0.8-2,0-2.8C344.8,341.6,343.6,341.6,342.8,342.4z"/>
	<path style="fill:#FFFFFF;" d="M278.4,131.2c4,0.8,8,1.6,12,2.8h0.4c0.8,0,1.6-0.4,2-1.6c0.4-1.2-0.4-2.4-1.2-2.4
		c-4-1.2-8-2.4-12.4-3.2c-1.2-0.4-2.4,0.4-2.4,1.6C276.4,129.6,277.2,130.8,278.4,131.2z"/>
	<path style="fill:#FFFFFF;" d="M350.8,174c0.4,0.4,0.8,0.8,1.6,0.8c0.4,0,0.8,0,1.2-0.4c0.8-0.8,1.2-2,0.4-2.8
		c-2.8-3.2-5.6-6.4-8.4-9.2c-0.8-0.8-2-0.8-2.8,0s-0.8,2,0,2.8C345.6,168,348.4,171.2,350.8,174z"/>
	<path style="fill:#FFFFFF;" d="M302,138c3.6,1.6,7.6,3.2,11.2,5.2c0.4,0,0.8,0.4,0.8,0.4c0.8,0,1.6-0.4,2-1.2
		c0.4-1.2,0-2.4-0.8-2.8c-3.6-2-7.6-3.6-11.6-5.2c-1.2-0.4-2.4,0-2.8,1.2C300.4,136.4,300.8,137.6,302,138z"/>
	<path style="fill:#FFFFFF;" d="M379.6,253.6v0.4c0,4-0.4,8.4-0.4,12.4c0,1.2,0.8,2,2,2.4c0,0,0,0,0.4,0c1.2,0,2-0.8,2-2
		c0.4-4,0.8-8.4,0.8-12.8v-0.4c0-1.2-0.8-2-2-2C380.4,251.6,379.6,252.4,379.6,253.6z"/>
	<path style="fill:#FFFFFF;" d="M358.4,323.6c-2.4,3.2-4.8,6.8-7.2,10c-0.8,0.8-0.4,2,0.4,2.8c0.4,0.4,0.8,0.4,1.2,0.4
		c0.4,0,1.2-0.4,1.6-0.8c2.8-3.2,5.2-6.8,7.6-10c0.8-0.8,0.4-2.4-0.4-2.8C360.4,322.4,359.2,322.8,358.4,323.6z"/>
	<path style="fill:#FFFFFF;" d="M254,128.8h0.4c4,0,8,0,12,0.4l0,0c1.2,0,2-0.8,2-2s-0.8-2-2-2.4c-4-0.4-8-0.4-12.4-0.4l0,0
		c-1.2,0-2,0.8-2,2C252,128,252.8,128.8,254,128.8z"/>
	<path style="fill:#FFFFFF;" d="M377.2,229.2c0.8,4,1.6,8,2,12c0,1.2,1.2,2,2,2c0,0,0,0,0.4,0c1.2,0,2-1.2,2-2.4
		c-0.4-4-1.2-8.4-2-12.4c-0.4-1.2-1.2-2-2.4-1.6C377.6,226.8,376.8,228,377.2,229.2z"/>
	<path style="fill:#FFFFFF;" d="M379.6,276.8c-1.2-0.4-2.4,0.4-2.4,1.6c-0.8,4-1.6,8-2.8,12c-0.4,1.2,0.4,2.4,1.2,2.4
		c0.4,0,0.4,0,0.4,0c0.8,0,1.6-0.4,2-1.6c1.2-4,2.4-8,3.2-12.4C381.6,278,380.8,277.2,379.6,276.8z"/>
	<path style="fill:#FFFFFF;" d="M374,217.2c0.4,0.8,1.2,1.6,2,1.6c0.4,0,0.4,0,0.8,0c1.2-0.4,1.6-1.6,1.2-2.4c-1.2-4-2.8-8-4.4-12
		c-0.4-1.2-1.6-1.6-2.8-1.2c-1.2,0.4-1.6,1.6-1.2,2.8C371.6,209.2,372.8,213.2,374,217.2z"/>
	<path style="fill:#FFFFFF;" d="M364.4,194.4c0.4,0.8,1.2,1.2,2,1.2c0.4,0,0.8,0,0.8-0.4c1.2-0.4,1.2-1.6,0.8-2.8
		c-2-3.6-4.4-7.2-6.4-10.8c-0.8-0.8-2-1.2-2.8-0.4s-1.2,2-0.4,2.8C360.4,187.6,362.8,190.8,364.4,194.4z"/>
	<path style="fill:#FFFFFF;" d="M370,302c-1.6,3.6-3.2,7.6-5.2,11.2c-0.4,1.2,0,2.4,0.8,2.8c0.4,0,0.8,0.4,0.8,0.4
		c0.8,0,1.6-0.4,2-1.2c2-3.6,4-7.6,5.6-11.6c0.4-1.2,0-2.4-1.2-2.8C371.6,300.4,370.4,300.8,370,302z"/>
	<path style="fill:#FFFFFF;" d="M302.4,369.6c-3.6,1.6-7.6,2.8-11.6,4c-1.2,0.4-1.6,1.6-1.2,2.4s1.2,1.6,2,1.6c0,0,0.4,0,0.8,0
		c4-1.2,8-2.8,12-4.4c1.2-0.4,1.6-1.6,1.2-2.8C304.4,369.6,303.2,369.2,302.4,369.6z"/>
	<path style="fill:#FFFFFF;" d="M229.2,131.2h0.4c4-0.8,8-1.6,12-2c1.2,0,2-1.2,2-2.4s-1.2-2-2.4-2c-4.4,0.4-8.4,1.2-12.4,2
		c-1.2,0.4-2,1.2-1.6,2.4C227.2,130.4,228,131.2,229.2,131.2z"/>
	<path style="fill:#FFFFFF;" d="M135.6,207.6c0.4,0,0.4,0,0.8,0c0.8,0,1.6-0.4,2-1.2c1.6-3.6,3.2-7.6,5.2-11.2
		c0.4-1.2,0-2.4-0.8-2.8c-1.2-0.4-2.4,0-2.8,0.8c-2,3.6-3.6,7.6-5.6,11.6C134,206,134.8,207.2,135.6,207.6z"/>
	<path style="fill:#FFFFFF;" d="M141.2,312.4c-1.2,0.4-1.2,1.6-0.8,2.8c2,3.6,4,7.2,6.4,10.8c0.4,0.4,1.2,0.8,1.6,0.8
		c0.4,0,0.8,0,1.2-0.4c0.8-0.8,1.2-2,0.4-2.8c-2.4-3.2-4.4-6.8-6.4-10.4C143.2,312.4,142,312,141.2,312.4z"/>
	<path style="fill:#FFFFFF;" d="M126.8,256c1.2,0,2-1.2,2-2c0-4,0-8,0.4-12c0-1.2-0.8-2-2-2.4c-1.2,0-2,0.8-2.4,2
		c-0.4,4-0.4,8.4-0.4,12.4v0.4C124.8,255.6,126,256,126.8,256z"/>
	<path style="fill:#FFFFFF;" d="M148.4,185.6c0.8,0,1.2-0.4,1.6-0.8c2.4-3.6,4.8-6.8,7.2-10c0.8-0.8,0.4-2-0.4-2.8
		c-0.8-0.8-2-0.4-2.8,0.4c-2.8,3.2-5.2,6.8-7.6,10.4c-0.8,0.8-0.4,2.4,0.4,2.8C147.6,185.6,148,185.6,148.4,185.6z"/>
	<path style="fill:#FFFFFF;" d="M128.8,231.6C129.2,231.6,129.2,231.6,128.8,231.6c1.2,0,2.4-0.8,2.4-1.6c0.8-4,1.6-8,2.8-12
		c0.4-1.2-0.4-2.4-1.2-2.4c-1.2-0.4-2.4,0.4-2.4,1.2c-1.2,4-2.4,8-3.2,12.4C127.2,230,127.6,231.2,128.8,231.6z"/>
	<path style="fill:#FFFFFF;" d="M129.6,266.4c0-1.2-1.2-2-2.4-2s-2,1.2-2,2.4c0.4,4.4,1.2,8.4,2,12.4c0,0.8,1.2,1.6,2,1.6h0.4
		c1.2-0.4,2-1.2,1.6-2.4C130.8,274.8,130,270.8,129.6,266.4z"/>
	<path style="fill:#FFFFFF;" d="M134.8,303.6c0.4,0.8,1.2,1.2,2,1.2c0.4,0,0.4,0,0.8,0c1.2-0.4,1.6-1.6,1.2-2.8
		c-1.6-3.6-2.8-7.6-4-11.6c-0.4-1.2-1.6-1.6-2.4-1.2c-1.2,0.4-1.6,1.6-1.2,2.4C131.6,296,133.2,300,134.8,303.6z"/>
	<path style="fill:#FFFFFF;" d="M183.2,150.4c0.4,0,0.8,0,1.2-0.4c3.2-2.4,6.8-4.4,10.4-6.4c0.8-0.4,1.2-1.6,0.8-2.8
		s-1.6-1.2-2.8-0.8c-3.6,2-7.2,4.4-10.8,6.4c-0.8,0.8-1.2,2-0.4,2.8C182,150,182.4,150.4,183.2,150.4z"/>
	<path style="fill:#FFFFFF;" d="M195.2,364.4c-1.2-0.4-2.4,0-2.8,0.8c-0.4,1.2,0,2.4,0.8,2.8c3.6,2,7.6,4,11.6,5.6
		c0.4,0,0.4,0,0.8,0c0.8,0,1.6-0.4,2-1.2c0.4-1.2,0-2.4-1.2-2.8C202.8,368.4,198.8,366.4,195.2,364.4z"/>
	<path style="fill:#FFFFFF;" d="M154.8,333.2c-0.8,0.8-1.2,2-0.4,2.8c2.8,3.2,5.6,6.4,8.4,9.2c0.4,0.4,0.8,0.8,1.6,0.8
		c0.4,0,1.2-0.4,1.6-0.8c0.8-0.8,0.8-2,0-2.8c-2.8-2.8-5.6-6-8.4-9.2C156.8,332.8,155.6,332.8,154.8,333.2z"/>
	<path style="fill:#FFFFFF;" d="M205.2,138.4c0.4,0,0.4,0,0.8,0c3.6-1.6,7.6-2.8,11.6-4c1.2-0.4,1.6-1.6,1.2-2.4
		c-0.4-1.2-1.6-1.6-2.4-1.2c-4,1.2-8,2.8-12,4.4c-1.2,0.4-1.6,1.6-1.2,2.8C203.6,138,204.4,138.4,205.2,138.4z"/>
	<path style="fill:#FFFFFF;" d="M172,351.2c-0.8,0.8-0.4,2,0.4,2.8c3.2,2.8,6.8,5.2,10,7.6c0.4,0.4,0.8,0.4,1.2,0.4
		c0.8,0,1.2-0.4,1.6-0.8c0.8-0.8,0.4-2.4-0.4-2.8c-3.2-2.4-6.8-4.8-10-7.2C174,350.4,172.8,350.4,172,351.2z"/>
	<path style="fill:#FFFFFF;" d="M164,166.4c0.4,0,1.2-0.4,1.6-0.8c2.8-2.8,6-5.6,9.2-8.4c0.8-0.8,1.2-2,0.4-2.8s-2-1.2-2.8-0.4
		c-3.2,2.8-6.4,5.6-9.2,8.4c-0.8,0.8-0.8,2,0,2.8C162.8,166,163.6,166.4,164,166.4z"/>
	<path style="fill:#FFFFFF;" d="M397.6,273.6h-32.8c-2,0-3.2-1.6-3.2-3.2v-32.8c0-2,1.6-3.2,3.2-3.2h32.8c2,0,3.2,1.6,3.2,3.2v32.8
		C400.8,272.4,399.2,273.6,397.6,273.6z"/>
	<path style="fill:#FFFFFF;" d="M143.2,273.6h-32.8c-2,0-3.2-1.6-3.2-3.2v-32.8c0-2,1.6-3.2,3.2-3.2h32.8c2,0,3.2,1.6,3.2,3.2v32.8
		C146.8,272.4,145.2,273.6,143.2,273.6z"/>
	<path style="fill:#FFFFFF;" d="M234.4,397.6v-32.8c0-2,1.6-3.2,3.2-3.2h32.8c2,0,3.2,1.6,3.2,3.2v32.8c0,2-1.6,3.2-3.2,3.2h-32.8
		C235.6,400.8,234.4,399.2,234.4,397.6z"/>
	<path style="fill:#FFFFFF;" d="M234.4,143.2v-32.8c0-2,1.6-3.2,3.2-3.2h32.8c2,0,3.2,1.6,3.2,3.2v32.8c0,2-1.6,3.2-3.2,3.2h-32.8
		C235.6,146.8,234.4,145.2,234.4,143.2z"/>
	<circle style="fill:#FFFFFF;" cx="396" cy="381.2" r="15.2"/>
	<circle style="fill:#FFFFFF;" cx="112" cy="381.2" r="15.2"/>
</g>
<path style="fill:#324A5E;" d="M268.8,273.2c0-8-6.4-14.8-14.8-14.8c-8,0-14.8,6.4-14.8,14.8c0,7.2,5.2,13.2,11.6,14.4V342l-72-73.2
	c27.6-34.8,45.6-68.4,51.2-83.2h48c5.6,14.8,23.6,48.4,50.8,83.6l-72,72.8v-54.8C263.6,286,268.8,280,268.8,273.2z"/>
<path style="fill:#FF7058;" d="M316.8,8L304,182.8c-0.8,9.6-8.8,17.2-18.4,17.2h-62.8c-9.6,0-18-7.6-18.4-17.2L191.2,8
	c20-5.2,41.2-8,62.8-8S296.8,2.8,316.8,8z"/>
<g>
</g>
<g>
</g>
<g>
</g>
<g>
</g>
<g>
</g>
<g>
</g>
<g>
</g>
<g>
</g>
<g>
</g>
<g>
</g>
<g>
</g>
<g>
</g>
<g>
</g>
<g>
</g>
<g>
</g>
</svg>
